<svg width="180" height="182" viewBox="0 0 180 182" fill="none" xmlns="http://www.w3.org/2000/svg">
<rect x="8.08203" y="8.08691" width="15.6208" height="15.621" rx="7.81039" fill="#151515"/>
<rect x="6.05859" y="54.582" width="20.8277" height="20.828" rx="10.4138" fill="#151515"/>
<rect x="2.02344" y="103.1" width="26.0346" height="26.035" rx="13.0173" fill="#151515"/>
<rect y="147.574" width="31.2415" height="31.242" rx="15.6208" fill="#151515"/>
<rect x="52.5625" y="6.06445" width="20.8277" height="20.828" rx="10.4138" fill="#151515"/>
<rect x="50.5391" y="52.5591" width="26.0346" height="26.035" rx="13.0173" fill="#151515"/>
<rect x="50.5391" y="99.0562" width="31.2415" height="31.242" rx="15.6208" fill="#151515"/>
<rect x="48.5117" y="145.551" width="36.4485" height="36.449" rx="18.2242" fill="#151515"/>
<rect x="97.0273" y="2.021" width="26.0346" height="26.035" rx="13.0173" fill="#151515"/>
<rect x="97.0273" y="48.5176" width="31.2415" height="31.242" rx="15.6208" fill="#151515"/>
<rect x="97.0273" y="97.0352" width="36.4485" height="36.449" rx="18.2242" fill="#151515"/>
<rect x="145.555" width="31.2415" height="31.242" rx="15.6208" fill="#151515"/>
<rect x="143.531" y="46.4971" width="36.4485" height="36.449" rx="18.2242" fill="#151515"/>
</svg>
